# Blender 4.4.3
# www.blender.org
o Cube
v 0.627313 0.627313 0.179830
v 0.627313 -0.627313 0.179830
v -0.627313 0.627313 0.179830
v -0.627313 -0.627313 0.179830
v -0.320091 -0.320091 1.685518
v -0.320091 0.320091 1.685518
v 0.320091 0.320091 1.685517
v 0.320091 -0.320091 1.685517
v 0.607093 -0.607093 -1.636583
v -0.607093 -0.607093 -1.636583
v 0.607093 0.607093 -1.636583
v -0.607093 0.607093 -1.636583
v -0.862555 0.000000 0.179830
v 0.862555 0.000000 0.179830
v -0.000000 0.862555 0.179830
v -0.000000 -0.862555 0.179830
v -0.358295 0.000000 1.823863
v 0.358295 0.000000 1.823862
v -0.000000 0.358295 1.823863
v -0.000000 -0.358295 1.823863
v 0.481970 0.481970 1.105265
v 0.481970 -0.481970 1.105265
v -0.481970 -0.481970 1.105265
v -0.481970 0.481970 1.105265
v -0.000000 -0.753801 -1.659267
v 0.753801 0.000000 -1.659267
v -0.753801 0.000000 -1.659267
v -0.000000 0.753801 -1.659267
v 0.664801 -0.664801 -1.439806
v -0.664801 0.664801 -1.439806
v 0.664801 0.664801 -1.439806
v -0.664801 -0.664801 -1.439806
v 0.656877 0.000000 1.117699
v 0.914145 0.000000 -1.439994
v -0.000000 0.000000 2.039412
v -0.656877 0.000000 1.117699
v -0.000000 -0.656877 1.117699
v -0.000000 0.656877 1.117699
v 0.000000 -0.000000 -1.704821
v -0.914145 0.000000 -1.439994
v -0.000000 -0.914145 -1.439994
v -0.000000 0.914145 -1.439994
vn 0.7017 0.7017 0.1232
vn 0.7017 -0.7017 0.1232
vn -0.7017 0.7017 0.1232
vn -0.7017 -0.7017 0.1232
vn -0.6049 -0.6049 0.5179
vn -0.6049 0.6049 0.5179
vn 0.6049 0.6049 0.5179
vn 0.6049 -0.6049 0.5179
vn 0.4402 -0.4402 -0.7826
vn -0.4402 -0.4402 -0.7826
vn 0.4402 0.4402 -0.7826
vn -0.4402 0.4402 -0.7826
vn -0.9927 -0.0000 0.1203
vn 0.9927 -0.0000 0.1203
vn -0.0000 0.9927 0.1203
vn -0.0000 -0.9927 0.1203
vn -0.7202 -0.0000 0.6937
vn 0.7202 -0.0000 0.6937
vn -0.0000 0.7202 0.6937
vn -0.0000 -0.7202 0.6937
vn 0.6752 0.6752 0.2969
vn 0.6752 -0.6752 0.2969
vn -0.6752 -0.6752 0.2969
vn -0.6752 0.6752 0.2969
vn -0.0000 -0.5706 -0.8212
vn 0.5706 -0.0000 -0.8212
vn -0.5706 -0.0000 -0.8212
vn -0.0000 0.5706 -0.8212
vn 0.6863 -0.6863 -0.2408
vn -0.6863 0.6863 -0.2408
vn 0.6863 0.6863 -0.2408
vn -0.6863 -0.6863 -0.2408
vn 0.9571 -0.0000 0.2897
vn 0.9742 -0.0000 -0.2256
vn -0.0000 -0.0000 1.0000
vn -0.9571 -0.0000 0.2897
vn -0.0000 -0.9571 0.2897
vn -0.0000 0.9571 0.2897
vn -0.0000 -0.0000 -1.0000
vn -0.9742 -0.0000 -0.2256
vn -0.0000 -0.9742 -0.2256
vn -0.0000 0.9742 -0.2256
s 1
f 2//2 14//14 33//33 22//22
f 14//14 1//1 21//21 33//33
f 33//33 21//21 7//7 18//18
f 22//22 33//33 18//18 8//8
f 4//4 32//32 41//41 16//16
f 14//14 34//34 31//31 1//1
f 13//13 40//40 32//32 4//4
f 29//29 34//34 14//14 2//2
f 16//16 41//41 29//29 2//2
f 34//34 29//29 9//9 26//26
f 31//31 34//34 26//26 11//11
f 8//8 18//18 35//35 20//20
f 18//18 7//7 19//19 35//35
f 35//35 19//19 6//6 17//17
f 20//20 35//35 17//17 5//5
f 3//3 13//13 36//36 24//24
f 13//13 4//4 23//23 36//36
f 36//36 23//23 5//5 17//17
f 24//24 36//36 17//17 6//6
f 4//4 16//16 37//37 23//23
f 16//16 2//2 22//22 37//37
f 37//37 22//22 8//8 20//20
f 23//23 37//37 20//20 5//5
f 1//1 15//15 38//38 21//21
f 15//15 3//3 24//24 38//38
f 38//38 24//24 6//6 19//19
f 21//21 38//38 19//19 7//7
f 10//10 27//27 39//39 25//25
f 27//27 12//12 28//28 39//39
f 39//39 28//28 11//11 26//26
f 25//25 39//39 26//26 9//9
f 40//40 30//30 12//12 27//27
f 32//32 40//40 27//27 10//10
f 30//30 40//40 13//13 3//3
f 41//41 32//32 10//10 25//25
f 29//29 41//41 25//25 9//9
f 15//15 42//42 30//30 3//3
f 42//42 31//31 11//11 28//28
f 30//30 42//42 28//28 12//12
f 15//15 1//1 31//31 42//42
